<mxfile host="app.diagrams.net" modified="2024-05-18T06:24:54.474Z" agent="Mozilla/5.0 (Windows NT 10.0; Win64; x64) AppleWebKit/537.36 (KHTML, like Gecko) Chrome/124.0.0.0 Safari/537.36" etag="XqOZTDOFnFd2rg_kXVk0" version="24.4.3" type="github" pages="5">
  <diagram name="EMS" id="cyA4w0rCBu8PJxnkou6-">
    <mxGraphModel dx="1706" dy="812" grid="1" gridSize="10" guides="1" tooltips="1" connect="1" arrows="1" fold="1" page="1" pageScale="1" pageWidth="850" pageHeight="1100" math="0" shadow="0">
      <root>
        <mxCell id="0" />
        <mxCell id="1" parent="0" />
        <mxCell id="47FU8AiSbH1JvdXJ44zY-2" value="" style="rounded=0;whiteSpace=wrap;html=1;dashed=1;dashPattern=12 12;" vertex="1" parent="1">
          <mxGeometry x="70" y="60" width="760" height="150" as="geometry" />
        </mxCell>
        <mxCell id="47FU8AiSbH1JvdXJ44zY-1" value="State Machine" style="rounded=0;whiteSpace=wrap;html=1;" vertex="1" parent="1">
          <mxGeometry x="70" y="70" width="760" height="50" as="geometry" />
        </mxCell>
        <mxCell id="47FU8AiSbH1JvdXJ44zY-3" value="Application" style="text;html=1;align=center;verticalAlign=middle;whiteSpace=wrap;rounded=0;" vertex="1" parent="1">
          <mxGeometry x="70" y="30" width="60" height="30" as="geometry" />
        </mxCell>
        <mxCell id="47FU8AiSbH1JvdXJ44zY-4" value="" style="rounded=0;whiteSpace=wrap;html=1;dashed=1;dashPattern=12 12;" vertex="1" parent="1">
          <mxGeometry x="70" y="240" width="760" height="150" as="geometry" />
        </mxCell>
        <mxCell id="47FU8AiSbH1JvdXJ44zY-5" value="Input/ Output" style="rounded=0;whiteSpace=wrap;html=1;" vertex="1" parent="1">
          <mxGeometry x="70" y="340" width="760" height="50" as="geometry" />
        </mxCell>
        <mxCell id="47FU8AiSbH1JvdXJ44zY-8" value="Duty Cycle" style="rounded=1;whiteSpace=wrap;html=1;" vertex="1" parent="1">
          <mxGeometry x="170" y="170" width="60" height="30" as="geometry" />
        </mxCell>
        <mxCell id="47FU8AiSbH1JvdXJ44zY-10" value="Frequency" style="rounded=1;whiteSpace=wrap;html=1;" vertex="1" parent="1">
          <mxGeometry x="220" y="130" width="60" height="30" as="geometry" />
        </mxCell>
        <mxCell id="47FU8AiSbH1JvdXJ44zY-11" value="AdSet Toggle" style="rounded=1;whiteSpace=wrap;html=1;" vertex="1" parent="1">
          <mxGeometry x="270" y="170" width="60" height="30" as="geometry" />
        </mxCell>
        <mxCell id="R0_isSfU18zi0Sa-aPXJ-1" value="&lt;span style=&quot;color: rgb(0, 0, 0); font-family: Arial; font-size: 13px; font-style: normal; font-variant-ligatures: normal; font-variant-caps: normal; font-weight: normal; letter-spacing: normal; orphans: 2; text-align: left; text-indent: 0px; text-transform: none; widows: 2; word-spacing: 0px; -webkit-text-stroke-width: 0px; white-space: pre-wrap; text-decoration: none; text-decoration-skip-ink: none;&quot;&gt;- &lt;/span&gt;&lt;span style=&quot;color: rgb(0, 0, 0); font-family: Arial; font-size: 13px; font-style: normal; font-variant-ligatures: normal; font-variant-caps: normal; letter-spacing: normal; orphans: 2; text-align: left; text-indent: 0px; text-transform: none; widows: 2; word-spacing: 0px; -webkit-text-stroke-width: 0px; white-space: pre-wrap; text-decoration: none; font-weight: bold; text-decoration-skip-ink: none;&quot;&gt;Duty-cycle&lt;/span&gt;&lt;span style=&quot;color: rgb(0, 0, 0); font-family: Arial; font-size: 13px; font-style: normal; font-variant-ligatures: normal; font-variant-caps: normal; font-weight: normal; letter-spacing: normal; orphans: 2; text-align: left; text-indent: 0px; text-transform: none; widows: 2; word-spacing: 0px; -webkit-text-stroke-width: 0px; white-space: pre-wrap; text-decoration: none; text-decoration-skip-ink: none;&quot;&gt; (percentage time on 0-100%)&#xa;- &lt;/span&gt;&lt;span style=&quot;color: rgb(0, 0, 0); font-family: Arial; font-size: 13px; font-style: normal; font-variant-ligatures: normal; font-variant-caps: normal; letter-spacing: normal; orphans: 2; text-align: left; text-indent: 0px; text-transform: none; widows: 2; word-spacing: 0px; -webkit-text-stroke-width: 0px; white-space: pre-wrap; text-decoration: none; font-weight: bold; text-decoration-skip-ink: none;&quot;&gt;Frequency &lt;/span&gt;&lt;span style=&quot;color: rgb(0, 0, 0); font-family: Arial; font-size: 13px; font-style: normal; font-variant-ligatures: normal; font-variant-caps: normal; font-weight: normal; letter-spacing: normal; orphans: 2; text-align: left; text-indent: 0px; text-transform: none; widows: 2; word-spacing: 0px; -webkit-text-stroke-width: 0px; white-space: pre-wrap; text-decoration: none; text-decoration-skip-ink: none;&quot;&gt;(Voltage)&#xa;&#xa;Advanced Mode:&#xa;- &lt;/span&gt;&lt;span style=&quot;color: rgb(0, 0, 0); font-family: Arial; font-size: 13px; font-style: normal; font-variant-ligatures: normal; font-variant-caps: normal; letter-spacing: normal; orphans: 2; text-align: left; text-indent: 0px; text-transform: none; widows: 2; word-spacing: 0px; -webkit-text-stroke-width: 0px; white-space: pre-wrap; text-decoration: none; font-weight: bold; text-decoration-skip-ink: none;&quot;&gt;Waveform shape&lt;/span&gt;&lt;span style=&quot;color: rgb(0, 0, 0); font-family: Arial; font-size: 13px; font-style: normal; font-variant-ligatures: normal; font-variant-caps: normal; font-weight: normal; letter-spacing: normal; orphans: 2; text-align: left; text-indent: 0px; text-transform: none; widows: 2; word-spacing: 0px; -webkit-text-stroke-width: 0px; white-space: pre-wrap; text-decoration: none; text-decoration-skip-ink: none;&quot;&gt;&#xa;- &lt;/span&gt;&lt;span style=&quot;color: rgb(0, 0, 0); font-family: Arial; font-size: 13px; font-style: normal; font-variant-ligatures: normal; font-variant-caps: normal; letter-spacing: normal; orphans: 2; text-align: left; text-indent: 0px; text-transform: none; widows: 2; word-spacing: 0px; -webkit-text-stroke-width: 0px; white-space: pre-wrap; text-decoration: none; font-weight: bold; text-decoration-skip-ink: none;&quot;&gt;Amplitude&lt;/span&gt;&lt;span style=&quot;color: rgb(0, 0, 0); font-family: Arial; font-size: 13px; font-style: normal; font-variant-ligatures: normal; font-variant-caps: normal; font-weight: normal; letter-spacing: normal; orphans: 2; text-align: left; text-indent: 0px; text-transform: none; widows: 2; word-spacing: 0px; -webkit-text-stroke-width: 0px; white-space: pre-wrap; text-decoration: none; text-decoration-skip-ink: none;&quot;&gt;&#xa;- &lt;/span&gt;&lt;span style=&quot;color: rgb(0, 0, 0); font-family: Arial; font-size: 13px; font-style: normal; font-variant-ligatures: normal; font-variant-caps: normal; letter-spacing: normal; orphans: 2; text-align: left; text-indent: 0px; text-transform: none; widows: 2; word-spacing: 0px; -webkit-text-stroke-width: 0px; white-space: pre-wrap; text-decoration: none; font-weight: bold; text-decoration-skip-ink: none;&quot;&gt;Wave onset&lt;/span&gt;&lt;span style=&quot;color: rgb(0, 0, 0); font-family: Arial; font-size: 13px; font-style: normal; font-variant-ligatures: normal; font-variant-caps: normal; font-weight: normal; letter-spacing: normal; orphans: 2; text-align: left; text-indent: 0px; text-transform: none; widows: 2; word-spacing: 0px; -webkit-text-stroke-width: 0px; white-space: pre-wrap; text-decoration: none; text-decoration-skip-ink: none;&quot;&gt;&#xa;- &lt;/span&gt;&lt;span style=&quot;color: rgb(0, 0, 0); font-family: Arial; font-size: 13px; font-style: normal; font-variant-ligatures: normal; font-variant-caps: normal; letter-spacing: normal; orphans: 2; text-align: left; text-indent: 0px; text-transform: none; widows: 2; word-spacing: 0px; -webkit-text-stroke-width: 0px; white-space: pre-wrap; text-decoration: none; font-weight: bold; text-decoration-skip-ink: none;&quot;&gt;Steady state&lt;/span&gt;&lt;span style=&quot;color: rgb(0, 0, 0); font-family: Arial; font-size: 13px; font-style: normal; font-variant-ligatures: normal; font-variant-caps: normal; font-weight: normal; letter-spacing: normal; orphans: 2; text-align: left; text-indent: 0px; text-transform: none; widows: 2; word-spacing: 0px; -webkit-text-stroke-width: 0px; white-space: pre-wrap; text-decoration: none; text-decoration-skip-ink: none;&quot;&gt;&#xa;- &lt;/span&gt;&lt;span style=&quot;color: rgb(0, 0, 0); font-family: Arial; font-size: 13px; font-style: normal; font-variant-ligatures: normal; font-variant-caps: normal; letter-spacing: normal; orphans: 2; text-align: left; text-indent: 0px; text-transform: none; widows: 2; word-spacing: 0px; -webkit-text-stroke-width: 0px; white-space: pre-wrap; text-decoration: none; font-weight: bold; text-decoration-skip-ink: none;&quot;&gt;Ramp down&lt;/span&gt;&lt;span style=&quot;color: rgb(0, 0, 0); font-family: Arial; font-size: 13px; font-style: normal; font-variant-ligatures: normal; font-variant-caps: normal; font-weight: normal; letter-spacing: normal; orphans: 2; text-align: left; text-indent: 0px; text-transform: none; widows: 2; word-spacing: 0px; -webkit-text-stroke-width: 0px; white-space: pre-wrap; text-decoration: none; text-decoration-skip-ink: none;&quot;&gt;&#xa;- &lt;/span&gt;&lt;span style=&quot;color: rgb(0, 0, 0); font-family: Arial; font-size: 13px; font-style: normal; font-variant-ligatures: normal; font-variant-caps: normal; letter-spacing: normal; orphans: 2; text-align: left; text-indent: 0px; text-transform: none; widows: 2; word-spacing: 0px; -webkit-text-stroke-width: 0px; white-space: pre-wrap; text-decoration: none; font-weight: bold; text-decoration-skip-ink: none;&quot;&gt;Tissue Effect&lt;/span&gt;&lt;span style=&quot;color: rgb(0, 0, 0); font-family: Arial; font-size: 13px; font-style: normal; font-variant-ligatures: normal; font-variant-caps: normal; font-weight: normal; letter-spacing: normal; orphans: 2; text-align: left; text-indent: 0px; text-transform: none; widows: 2; word-spacing: 0px; -webkit-text-stroke-width: 0px; white-space: pre-wrap; text-decoration: none; text-decoration-skip-ink: none;&quot;&gt;&#xa;- &lt;/span&gt;&lt;span style=&quot;color: rgb(0, 0, 0); font-family: Arial; font-size: 13px; font-style: normal; font-variant-ligatures: normal; font-variant-caps: normal; letter-spacing: normal; orphans: 2; text-align: left; text-indent: 0px; text-transform: none; widows: 2; word-spacing: 0px; -webkit-text-stroke-width: 0px; white-space: pre-wrap; text-decoration: none; font-weight: bold; text-decoration-skip-ink: none;&quot;&gt;Signal Line&lt;/span&gt;" style="text;whiteSpace=wrap;html=1;" vertex="1" parent="1">
          <mxGeometry x="-10" y="490" width="280" height="200" as="geometry" />
        </mxCell>
      </root>
    </mxGraphModel>
  </diagram>
  <diagram name="RF1" id="PLb107v8hQa_kPWoYW-B">
    <mxGraphModel dx="1024" dy="771" grid="1" gridSize="10" guides="1" tooltips="1" connect="1" arrows="1" fold="1" page="1" pageScale="1" pageWidth="850" pageHeight="1100" math="0" shadow="0">
      <root>
        <mxCell id="ZGtfo0b690prijXp5fph-0" />
        <mxCell id="ZGtfo0b690prijXp5fph-1" parent="ZGtfo0b690prijXp5fph-0" />
        <mxCell id="ZGtfo0b690prijXp5fph-2" value="" style="rounded=0;whiteSpace=wrap;html=1;dashed=1;dashPattern=12 12;" vertex="1" parent="ZGtfo0b690prijXp5fph-1">
          <mxGeometry x="20" y="60" width="880" height="150" as="geometry" />
        </mxCell>
        <mxCell id="ZGtfo0b690prijXp5fph-3" value="State Machine" style="rounded=0;whiteSpace=wrap;html=1;" vertex="1" parent="ZGtfo0b690prijXp5fph-1">
          <mxGeometry x="20" y="70" width="880" height="50" as="geometry" />
        </mxCell>
        <mxCell id="ZGtfo0b690prijXp5fph-4" value="Application" style="text;html=1;align=center;verticalAlign=middle;whiteSpace=wrap;rounded=0;" vertex="1" parent="ZGtfo0b690prijXp5fph-1">
          <mxGeometry x="20" y="30" width="60" height="30" as="geometry" />
        </mxCell>
        <mxCell id="ZGtfo0b690prijXp5fph-5" value="" style="rounded=0;whiteSpace=wrap;html=1;dashed=1;dashPattern=12 12;" vertex="1" parent="ZGtfo0b690prijXp5fph-1">
          <mxGeometry x="20" y="240" width="880" height="150" as="geometry" />
        </mxCell>
        <mxCell id="ZGtfo0b690prijXp5fph-6" value="Input/ Output" style="rounded=0;whiteSpace=wrap;html=1;" vertex="1" parent="ZGtfo0b690prijXp5fph-1">
          <mxGeometry x="20" y="340" width="780" height="50" as="geometry" />
        </mxCell>
        <mxCell id="ZGtfo0b690prijXp5fph-7" value="Duty Cycle" style="rounded=1;whiteSpace=wrap;html=1;" vertex="1" parent="ZGtfo0b690prijXp5fph-1">
          <mxGeometry x="120" y="170" width="60" height="30" as="geometry" />
        </mxCell>
        <mxCell id="ZGtfo0b690prijXp5fph-8" value="Frequency" style="rounded=1;whiteSpace=wrap;html=1;" vertex="1" parent="ZGtfo0b690prijXp5fph-1">
          <mxGeometry x="170" y="130" width="60" height="30" as="geometry" />
        </mxCell>
        <mxCell id="ZGtfo0b690prijXp5fph-9" value="AdSet Toggle" style="rounded=1;whiteSpace=wrap;html=1;" vertex="1" parent="ZGtfo0b690prijXp5fph-1">
          <mxGeometry x="220" y="170" width="60" height="30" as="geometry" />
        </mxCell>
        <mxCell id="ZGtfo0b690prijXp5fph-10" value="&lt;span style=&quot;color: rgb(0, 0, 0); font-family: Arial; font-size: 13px; font-style: normal; font-variant-ligatures: normal; font-variant-caps: normal; font-weight: normal; letter-spacing: normal; orphans: 2; text-align: left; text-indent: 0px; text-transform: none; widows: 2; word-spacing: 0px; -webkit-text-stroke-width: 0px; white-space: pre-wrap; text-decoration: none; text-decoration-skip-ink: none;&quot;&gt;- &lt;/span&gt;&lt;span style=&quot;color: rgb(0, 0, 0); font-family: Arial; font-size: 13px; font-style: normal; font-variant-ligatures: normal; font-variant-caps: normal; letter-spacing: normal; orphans: 2; text-align: left; text-indent: 0px; text-transform: none; widows: 2; word-spacing: 0px; -webkit-text-stroke-width: 0px; white-space: pre-wrap; text-decoration: none; font-weight: bold; text-decoration-skip-ink: none;&quot;&gt;Duty-cycle&lt;/span&gt;&lt;span style=&quot;color: rgb(0, 0, 0); font-family: Arial; font-size: 13px; font-style: normal; font-variant-ligatures: normal; font-variant-caps: normal; font-weight: normal; letter-spacing: normal; orphans: 2; text-align: left; text-indent: 0px; text-transform: none; widows: 2; word-spacing: 0px; -webkit-text-stroke-width: 0px; white-space: pre-wrap; text-decoration: none; text-decoration-skip-ink: none;&quot;&gt; (percentage time on 0-100%)&#xa;- &lt;/span&gt;&lt;span style=&quot;color: rgb(0, 0, 0); font-family: Arial; font-size: 13px; font-style: normal; font-variant-ligatures: normal; font-variant-caps: normal; letter-spacing: normal; orphans: 2; text-align: left; text-indent: 0px; text-transform: none; widows: 2; word-spacing: 0px; -webkit-text-stroke-width: 0px; white-space: pre-wrap; text-decoration: none; font-weight: bold; text-decoration-skip-ink: none;&quot;&gt;Frequency &lt;/span&gt;&lt;span style=&quot;color: rgb(0, 0, 0); font-family: Arial; font-size: 13px; font-style: normal; font-variant-ligatures: normal; font-variant-caps: normal; font-weight: normal; letter-spacing: normal; orphans: 2; text-align: left; text-indent: 0px; text-transform: none; widows: 2; word-spacing: 0px; -webkit-text-stroke-width: 0px; white-space: pre-wrap; text-decoration: none; text-decoration-skip-ink: none;&quot;&gt;(Voltage)&#xa;&#xa;Advanced Mode:&#xa;- &lt;/span&gt;&lt;span style=&quot;color: rgb(0, 0, 0); font-family: Arial; font-size: 13px; font-style: normal; font-variant-ligatures: normal; font-variant-caps: normal; letter-spacing: normal; orphans: 2; text-align: left; text-indent: 0px; text-transform: none; widows: 2; word-spacing: 0px; -webkit-text-stroke-width: 0px; white-space: pre-wrap; text-decoration: none; font-weight: bold; text-decoration-skip-ink: none;&quot;&gt;Waveform shape&lt;/span&gt;&lt;span style=&quot;color: rgb(0, 0, 0); font-family: Arial; font-size: 13px; font-style: normal; font-variant-ligatures: normal; font-variant-caps: normal; font-weight: normal; letter-spacing: normal; orphans: 2; text-align: left; text-indent: 0px; text-transform: none; widows: 2; word-spacing: 0px; -webkit-text-stroke-width: 0px; white-space: pre-wrap; text-decoration: none; text-decoration-skip-ink: none;&quot;&gt;&#xa;- &lt;/span&gt;&lt;span style=&quot;color: rgb(0, 0, 0); font-family: Arial; font-size: 13px; font-style: normal; font-variant-ligatures: normal; font-variant-caps: normal; letter-spacing: normal; orphans: 2; text-align: left; text-indent: 0px; text-transform: none; widows: 2; word-spacing: 0px; -webkit-text-stroke-width: 0px; white-space: pre-wrap; text-decoration: none; font-weight: bold; text-decoration-skip-ink: none;&quot;&gt;Amplitude&lt;/span&gt;&lt;span style=&quot;color: rgb(0, 0, 0); font-family: Arial; font-size: 13px; font-style: normal; font-variant-ligatures: normal; font-variant-caps: normal; font-weight: normal; letter-spacing: normal; orphans: 2; text-align: left; text-indent: 0px; text-transform: none; widows: 2; word-spacing: 0px; -webkit-text-stroke-width: 0px; white-space: pre-wrap; text-decoration: none; text-decoration-skip-ink: none;&quot;&gt;&#xa;- &lt;/span&gt;&lt;span style=&quot;color: rgb(0, 0, 0); font-family: Arial; font-size: 13px; font-style: normal; font-variant-ligatures: normal; font-variant-caps: normal; letter-spacing: normal; orphans: 2; text-align: left; text-indent: 0px; text-transform: none; widows: 2; word-spacing: 0px; -webkit-text-stroke-width: 0px; white-space: pre-wrap; text-decoration: none; font-weight: bold; text-decoration-skip-ink: none;&quot;&gt;Wave onset&lt;/span&gt;&lt;span style=&quot;color: rgb(0, 0, 0); font-family: Arial; font-size: 13px; font-style: normal; font-variant-ligatures: normal; font-variant-caps: normal; font-weight: normal; letter-spacing: normal; orphans: 2; text-align: left; text-indent: 0px; text-transform: none; widows: 2; word-spacing: 0px; -webkit-text-stroke-width: 0px; white-space: pre-wrap; text-decoration: none; text-decoration-skip-ink: none;&quot;&gt;&#xa;- &lt;/span&gt;&lt;span style=&quot;color: rgb(0, 0, 0); font-family: Arial; font-size: 13px; font-style: normal; font-variant-ligatures: normal; font-variant-caps: normal; letter-spacing: normal; orphans: 2; text-align: left; text-indent: 0px; text-transform: none; widows: 2; word-spacing: 0px; -webkit-text-stroke-width: 0px; white-space: pre-wrap; text-decoration: none; font-weight: bold; text-decoration-skip-ink: none;&quot;&gt;Steady state&lt;/span&gt;&lt;span style=&quot;color: rgb(0, 0, 0); font-family: Arial; font-size: 13px; font-style: normal; font-variant-ligatures: normal; font-variant-caps: normal; font-weight: normal; letter-spacing: normal; orphans: 2; text-align: left; text-indent: 0px; text-transform: none; widows: 2; word-spacing: 0px; -webkit-text-stroke-width: 0px; white-space: pre-wrap; text-decoration: none; text-decoration-skip-ink: none;&quot;&gt;&#xa;- &lt;/span&gt;&lt;span style=&quot;color: rgb(0, 0, 0); font-family: Arial; font-size: 13px; font-style: normal; font-variant-ligatures: normal; font-variant-caps: normal; letter-spacing: normal; orphans: 2; text-align: left; text-indent: 0px; text-transform: none; widows: 2; word-spacing: 0px; -webkit-text-stroke-width: 0px; white-space: pre-wrap; text-decoration: none; font-weight: bold; text-decoration-skip-ink: none;&quot;&gt;Ramp down&lt;/span&gt;&lt;span style=&quot;color: rgb(0, 0, 0); font-family: Arial; font-size: 13px; font-style: normal; font-variant-ligatures: normal; font-variant-caps: normal; font-weight: normal; letter-spacing: normal; orphans: 2; text-align: left; text-indent: 0px; text-transform: none; widows: 2; word-spacing: 0px; -webkit-text-stroke-width: 0px; white-space: pre-wrap; text-decoration: none; text-decoration-skip-ink: none;&quot;&gt;&#xa;- &lt;/span&gt;&lt;span style=&quot;color: rgb(0, 0, 0); font-family: Arial; font-size: 13px; font-style: normal; font-variant-ligatures: normal; font-variant-caps: normal; letter-spacing: normal; orphans: 2; text-align: left; text-indent: 0px; text-transform: none; widows: 2; word-spacing: 0px; -webkit-text-stroke-width: 0px; white-space: pre-wrap; text-decoration: none; font-weight: bold; text-decoration-skip-ink: none;&quot;&gt;Tissue Effect&lt;/span&gt;&lt;span style=&quot;color: rgb(0, 0, 0); font-family: Arial; font-size: 13px; font-style: normal; font-variant-ligatures: normal; font-variant-caps: normal; font-weight: normal; letter-spacing: normal; orphans: 2; text-align: left; text-indent: 0px; text-transform: none; widows: 2; word-spacing: 0px; -webkit-text-stroke-width: 0px; white-space: pre-wrap; text-decoration: none; text-decoration-skip-ink: none;&quot;&gt;&#xa;- &lt;/span&gt;&lt;span style=&quot;color: rgb(0, 0, 0); font-family: Arial; font-size: 13px; font-style: normal; font-variant-ligatures: normal; font-variant-caps: normal; letter-spacing: normal; orphans: 2; text-align: left; text-indent: 0px; text-transform: none; widows: 2; word-spacing: 0px; -webkit-text-stroke-width: 0px; white-space: pre-wrap; text-decoration: none; font-weight: bold; text-decoration-skip-ink: none;&quot;&gt;Signal Line&lt;/span&gt;" style="text;whiteSpace=wrap;html=1;" vertex="1" parent="ZGtfo0b690prijXp5fph-1">
          <mxGeometry x="300" y="460" width="280" height="200" as="geometry" />
        </mxCell>
        <mxCell id="nIg8wLcpz54RTvnNQKaW-0" value="Waveform" style="rounded=1;whiteSpace=wrap;html=1;dashed=1;dashPattern=8 8;" vertex="1" parent="ZGtfo0b690prijXp5fph-1">
          <mxGeometry x="280" y="130" width="60" height="30" as="geometry" />
        </mxCell>
        <mxCell id="nIg8wLcpz54RTvnNQKaW-1" value="Amplitude" style="rounded=1;whiteSpace=wrap;html=1;dashed=1;dashPattern=8 8;" vertex="1" parent="ZGtfo0b690prijXp5fph-1">
          <mxGeometry x="330" y="170" width="60" height="30" as="geometry" />
        </mxCell>
        <mxCell id="nIg8wLcpz54RTvnNQKaW-2" value="Wave onset" style="rounded=1;whiteSpace=wrap;html=1;dashed=1;dashPattern=8 8;" vertex="1" parent="ZGtfo0b690prijXp5fph-1">
          <mxGeometry x="390" y="130" width="60" height="30" as="geometry" />
        </mxCell>
        <mxCell id="nIg8wLcpz54RTvnNQKaW-3" value="Steady State" style="rounded=1;whiteSpace=wrap;html=1;dashed=1;dashPattern=8 8;" vertex="1" parent="ZGtfo0b690prijXp5fph-1">
          <mxGeometry x="440" y="170" width="60" height="30" as="geometry" />
        </mxCell>
        <mxCell id="nIg8wLcpz54RTvnNQKaW-4" value="Ramp down" style="rounded=1;whiteSpace=wrap;html=1;dashed=1;dashPattern=8 8;" vertex="1" parent="ZGtfo0b690prijXp5fph-1">
          <mxGeometry x="500" y="130" width="60" height="30" as="geometry" />
        </mxCell>
        <mxCell id="nIg8wLcpz54RTvnNQKaW-5" value="Tissue Effect" style="rounded=1;whiteSpace=wrap;html=1;dashed=1;dashPattern=8 8;" vertex="1" parent="ZGtfo0b690prijXp5fph-1">
          <mxGeometry x="550" y="170" width="60" height="30" as="geometry" />
        </mxCell>
        <mxCell id="nIg8wLcpz54RTvnNQKaW-6" value="Signal line" style="rounded=1;whiteSpace=wrap;html=1;dashed=1;dashPattern=8 8;" vertex="1" parent="ZGtfo0b690prijXp5fph-1">
          <mxGeometry x="610" y="130" width="60" height="30" as="geometry" />
        </mxCell>
      </root>
    </mxGraphModel>
  </diagram>
  <diagram name="Cameras" id="sD23rAhjxe_S_mtTa7Si">
    <mxGraphModel dx="1024" dy="771" grid="1" gridSize="10" guides="1" tooltips="1" connect="1" arrows="1" fold="1" page="1" pageScale="1" pageWidth="850" pageHeight="1100" math="0" shadow="0">
      <root>
        <mxCell id="0ZLc6GETvlCLtsxPZf_n-0" />
        <mxCell id="0ZLc6GETvlCLtsxPZf_n-1" parent="0ZLc6GETvlCLtsxPZf_n-0" />
        <mxCell id="0ZLc6GETvlCLtsxPZf_n-2" value="" style="rounded=0;whiteSpace=wrap;html=1;dashed=1;dashPattern=12 12;" vertex="1" parent="0ZLc6GETvlCLtsxPZf_n-1">
          <mxGeometry x="10" y="60" width="820" height="150" as="geometry" />
        </mxCell>
        <mxCell id="0ZLc6GETvlCLtsxPZf_n-3" value="State Machine (RF1)" style="rounded=0;whiteSpace=wrap;html=1;" vertex="1" parent="0ZLc6GETvlCLtsxPZf_n-1">
          <mxGeometry x="10" y="70" width="820" height="50" as="geometry" />
        </mxCell>
        <mxCell id="0ZLc6GETvlCLtsxPZf_n-4" value="Application" style="text;html=1;align=center;verticalAlign=middle;whiteSpace=wrap;rounded=0;" vertex="1" parent="0ZLc6GETvlCLtsxPZf_n-1">
          <mxGeometry x="10" y="30" width="60" height="30" as="geometry" />
        </mxCell>
        <mxCell id="0ZLc6GETvlCLtsxPZf_n-5" value="" style="rounded=0;whiteSpace=wrap;html=1;dashed=1;dashPattern=12 12;" vertex="1" parent="0ZLc6GETvlCLtsxPZf_n-1">
          <mxGeometry x="10" y="240" width="820" height="150" as="geometry" />
        </mxCell>
        <mxCell id="0ZLc6GETvlCLtsxPZf_n-6" value="Input/ Output" style="rounded=0;whiteSpace=wrap;html=1;" vertex="1" parent="0ZLc6GETvlCLtsxPZf_n-1">
          <mxGeometry x="10" y="340" width="670" height="50" as="geometry" />
        </mxCell>
        <mxCell id="0ZLc6GETvlCLtsxPZf_n-7" value="Duty Cycle" style="rounded=1;whiteSpace=wrap;html=1;" vertex="1" parent="0ZLc6GETvlCLtsxPZf_n-1">
          <mxGeometry x="170" y="170" width="60" height="30" as="geometry" />
        </mxCell>
        <mxCell id="0ZLc6GETvlCLtsxPZf_n-8" value="Frequency" style="rounded=1;whiteSpace=wrap;html=1;" vertex="1" parent="0ZLc6GETvlCLtsxPZf_n-1">
          <mxGeometry x="220" y="135" width="60" height="30" as="geometry" />
        </mxCell>
        <mxCell id="0ZLc6GETvlCLtsxPZf_n-9" value="AdSet Toggle" style="rounded=1;whiteSpace=wrap;html=1;" vertex="1" parent="0ZLc6GETvlCLtsxPZf_n-1">
          <mxGeometry x="270" y="170" width="60" height="30" as="geometry" />
        </mxCell>
        <mxCell id="0ZLc6GETvlCLtsxPZf_n-10" value="&lt;span style=&quot;color: rgb(0, 0, 0); font-family: Arial; font-size: 13px; font-style: normal; font-variant-ligatures: normal; font-variant-caps: normal; font-weight: normal; letter-spacing: normal; orphans: 2; text-align: left; text-indent: 0px; text-transform: none; widows: 2; word-spacing: 0px; -webkit-text-stroke-width: 0px; white-space: pre-wrap; text-decoration: none; text-decoration-skip-ink: none;&quot;&gt;- &lt;/span&gt;&lt;span style=&quot;color: rgb(0, 0, 0); font-family: Arial; font-size: 13px; font-style: normal; font-variant-ligatures: normal; font-variant-caps: normal; letter-spacing: normal; orphans: 2; text-align: left; text-indent: 0px; text-transform: none; widows: 2; word-spacing: 0px; -webkit-text-stroke-width: 0px; white-space: pre-wrap; text-decoration: none; font-weight: bold; text-decoration-skip-ink: none;&quot;&gt;Duty-cycle&lt;/span&gt;&lt;span style=&quot;color: rgb(0, 0, 0); font-family: Arial; font-size: 13px; font-style: normal; font-variant-ligatures: normal; font-variant-caps: normal; font-weight: normal; letter-spacing: normal; orphans: 2; text-align: left; text-indent: 0px; text-transform: none; widows: 2; word-spacing: 0px; -webkit-text-stroke-width: 0px; white-space: pre-wrap; text-decoration: none; text-decoration-skip-ink: none;&quot;&gt; (percentage time on 0-100%)&#xa;- &lt;/span&gt;&lt;span style=&quot;color: rgb(0, 0, 0); font-family: Arial; font-size: 13px; font-style: normal; font-variant-ligatures: normal; font-variant-caps: normal; letter-spacing: normal; orphans: 2; text-align: left; text-indent: 0px; text-transform: none; widows: 2; word-spacing: 0px; -webkit-text-stroke-width: 0px; white-space: pre-wrap; text-decoration: none; font-weight: bold; text-decoration-skip-ink: none;&quot;&gt;Frequency &lt;/span&gt;&lt;span style=&quot;color: rgb(0, 0, 0); font-family: Arial; font-size: 13px; font-style: normal; font-variant-ligatures: normal; font-variant-caps: normal; font-weight: normal; letter-spacing: normal; orphans: 2; text-align: left; text-indent: 0px; text-transform: none; widows: 2; word-spacing: 0px; -webkit-text-stroke-width: 0px; white-space: pre-wrap; text-decoration: none; text-decoration-skip-ink: none;&quot;&gt;(Voltage)&#xa;&#xa;Advanced Mode:&#xa;- &lt;/span&gt;&lt;span style=&quot;color: rgb(0, 0, 0); font-family: Arial; font-size: 13px; font-style: normal; font-variant-ligatures: normal; font-variant-caps: normal; letter-spacing: normal; orphans: 2; text-align: left; text-indent: 0px; text-transform: none; widows: 2; word-spacing: 0px; -webkit-text-stroke-width: 0px; white-space: pre-wrap; text-decoration: none; font-weight: bold; text-decoration-skip-ink: none;&quot;&gt;Waveform shape&lt;/span&gt;&lt;span style=&quot;color: rgb(0, 0, 0); font-family: Arial; font-size: 13px; font-style: normal; font-variant-ligatures: normal; font-variant-caps: normal; font-weight: normal; letter-spacing: normal; orphans: 2; text-align: left; text-indent: 0px; text-transform: none; widows: 2; word-spacing: 0px; -webkit-text-stroke-width: 0px; white-space: pre-wrap; text-decoration: none; text-decoration-skip-ink: none;&quot;&gt;&#xa;- &lt;/span&gt;&lt;span style=&quot;color: rgb(0, 0, 0); font-family: Arial; font-size: 13px; font-style: normal; font-variant-ligatures: normal; font-variant-caps: normal; letter-spacing: normal; orphans: 2; text-align: left; text-indent: 0px; text-transform: none; widows: 2; word-spacing: 0px; -webkit-text-stroke-width: 0px; white-space: pre-wrap; text-decoration: none; font-weight: bold; text-decoration-skip-ink: none;&quot;&gt;Amplitude&lt;/span&gt;&lt;span style=&quot;color: rgb(0, 0, 0); font-family: Arial; font-size: 13px; font-style: normal; font-variant-ligatures: normal; font-variant-caps: normal; font-weight: normal; letter-spacing: normal; orphans: 2; text-align: left; text-indent: 0px; text-transform: none; widows: 2; word-spacing: 0px; -webkit-text-stroke-width: 0px; white-space: pre-wrap; text-decoration: none; text-decoration-skip-ink: none;&quot;&gt;&#xa;- &lt;/span&gt;&lt;span style=&quot;color: rgb(0, 0, 0); font-family: Arial; font-size: 13px; font-style: normal; font-variant-ligatures: normal; font-variant-caps: normal; letter-spacing: normal; orphans: 2; text-align: left; text-indent: 0px; text-transform: none; widows: 2; word-spacing: 0px; -webkit-text-stroke-width: 0px; white-space: pre-wrap; text-decoration: none; font-weight: bold; text-decoration-skip-ink: none;&quot;&gt;Wave onset&lt;/span&gt;&lt;span style=&quot;color: rgb(0, 0, 0); font-family: Arial; font-size: 13px; font-style: normal; font-variant-ligatures: normal; font-variant-caps: normal; font-weight: normal; letter-spacing: normal; orphans: 2; text-align: left; text-indent: 0px; text-transform: none; widows: 2; word-spacing: 0px; -webkit-text-stroke-width: 0px; white-space: pre-wrap; text-decoration: none; text-decoration-skip-ink: none;&quot;&gt;&#xa;- &lt;/span&gt;&lt;span style=&quot;color: rgb(0, 0, 0); font-family: Arial; font-size: 13px; font-style: normal; font-variant-ligatures: normal; font-variant-caps: normal; letter-spacing: normal; orphans: 2; text-align: left; text-indent: 0px; text-transform: none; widows: 2; word-spacing: 0px; -webkit-text-stroke-width: 0px; white-space: pre-wrap; text-decoration: none; font-weight: bold; text-decoration-skip-ink: none;&quot;&gt;Steady state&lt;/span&gt;&lt;span style=&quot;color: rgb(0, 0, 0); font-family: Arial; font-size: 13px; font-style: normal; font-variant-ligatures: normal; font-variant-caps: normal; font-weight: normal; letter-spacing: normal; orphans: 2; text-align: left; text-indent: 0px; text-transform: none; widows: 2; word-spacing: 0px; -webkit-text-stroke-width: 0px; white-space: pre-wrap; text-decoration: none; text-decoration-skip-ink: none;&quot;&gt;&#xa;- &lt;/span&gt;&lt;span style=&quot;color: rgb(0, 0, 0); font-family: Arial; font-size: 13px; font-style: normal; font-variant-ligatures: normal; font-variant-caps: normal; letter-spacing: normal; orphans: 2; text-align: left; text-indent: 0px; text-transform: none; widows: 2; word-spacing: 0px; -webkit-text-stroke-width: 0px; white-space: pre-wrap; text-decoration: none; font-weight: bold; text-decoration-skip-ink: none;&quot;&gt;Ramp down&lt;/span&gt;&lt;span style=&quot;color: rgb(0, 0, 0); font-family: Arial; font-size: 13px; font-style: normal; font-variant-ligatures: normal; font-variant-caps: normal; font-weight: normal; letter-spacing: normal; orphans: 2; text-align: left; text-indent: 0px; text-transform: none; widows: 2; word-spacing: 0px; -webkit-text-stroke-width: 0px; white-space: pre-wrap; text-decoration: none; text-decoration-skip-ink: none;&quot;&gt;&#xa;- &lt;/span&gt;&lt;span style=&quot;color: rgb(0, 0, 0); font-family: Arial; font-size: 13px; font-style: normal; font-variant-ligatures: normal; font-variant-caps: normal; letter-spacing: normal; orphans: 2; text-align: left; text-indent: 0px; text-transform: none; widows: 2; word-spacing: 0px; -webkit-text-stroke-width: 0px; white-space: pre-wrap; text-decoration: none; font-weight: bold; text-decoration-skip-ink: none;&quot;&gt;Tissue Effect&lt;/span&gt;&lt;span style=&quot;color: rgb(0, 0, 0); font-family: Arial; font-size: 13px; font-style: normal; font-variant-ligatures: normal; font-variant-caps: normal; font-weight: normal; letter-spacing: normal; orphans: 2; text-align: left; text-indent: 0px; text-transform: none; widows: 2; word-spacing: 0px; -webkit-text-stroke-width: 0px; white-space: pre-wrap; text-decoration: none; text-decoration-skip-ink: none;&quot;&gt;&#xa;- &lt;/span&gt;&lt;span style=&quot;color: rgb(0, 0, 0); font-family: Arial; font-size: 13px; font-style: normal; font-variant-ligatures: normal; font-variant-caps: normal; letter-spacing: normal; orphans: 2; text-align: left; text-indent: 0px; text-transform: none; widows: 2; word-spacing: 0px; -webkit-text-stroke-width: 0px; white-space: pre-wrap; text-decoration: none; font-weight: bold; text-decoration-skip-ink: none;&quot;&gt;Signal Line&lt;/span&gt;" style="text;whiteSpace=wrap;html=1;" vertex="1" parent="0ZLc6GETvlCLtsxPZf_n-1">
          <mxGeometry x="70" y="490" width="280" height="200" as="geometry" />
        </mxCell>
        <mxCell id="8YmQNiKLnC_YRresIaqK-0" value="UART" style="rounded=1;whiteSpace=wrap;html=1;" vertex="1" parent="0ZLc6GETvlCLtsxPZf_n-1">
          <mxGeometry x="90" y="300" width="60" height="30" as="geometry" />
        </mxCell>
        <mxCell id="8YmQNiKLnC_YRresIaqK-4" style="edgeStyle=orthogonalEdgeStyle;rounded=0;orthogonalLoop=1;jettySize=auto;html=1;entryX=0.5;entryY=0;entryDx=0;entryDy=0;endArrow=none;endFill=0;" edge="1" parent="0ZLc6GETvlCLtsxPZf_n-1" source="8YmQNiKLnC_YRresIaqK-1" target="8YmQNiKLnC_YRresIaqK-0">
          <mxGeometry relative="1" as="geometry" />
        </mxCell>
        <mxCell id="8YmQNiKLnC_YRresIaqK-1" value="printf (external)" style="rounded=1;whiteSpace=wrap;html=1;" vertex="1" parent="0ZLc6GETvlCLtsxPZf_n-1">
          <mxGeometry x="90" y="173" width="60" height="30" as="geometry" />
        </mxCell>
        <mxCell id="8YmQNiKLnC_YRresIaqK-3" style="edgeStyle=orthogonalEdgeStyle;rounded=0;orthogonalLoop=1;jettySize=auto;html=1;exitX=0.5;exitY=1;exitDx=0;exitDy=0;entryX=0.5;entryY=0;entryDx=0;entryDy=0;" edge="1" parent="0ZLc6GETvlCLtsxPZf_n-1" source="8YmQNiKLnC_YRresIaqK-2" target="8YmQNiKLnC_YRresIaqK-1">
          <mxGeometry relative="1" as="geometry" />
        </mxCell>
        <mxCell id="8YmQNiKLnC_YRresIaqK-2" value="trace" style="rounded=1;whiteSpace=wrap;html=1;" vertex="1" parent="0ZLc6GETvlCLtsxPZf_n-1">
          <mxGeometry x="100" y="130" width="40" height="30" as="geometry" />
        </mxCell>
        <mxCell id="8YmQNiKLnC_YRresIaqK-6" style="edgeStyle=orthogonalEdgeStyle;rounded=0;orthogonalLoop=1;jettySize=auto;html=1;exitX=0.5;exitY=0;exitDx=0;exitDy=0;entryX=0.5;entryY=1;entryDx=0;entryDy=0;" edge="1" parent="0ZLc6GETvlCLtsxPZf_n-1" source="8YmQNiKLnC_YRresIaqK-5" target="0ZLc6GETvlCLtsxPZf_n-7">
          <mxGeometry relative="1" as="geometry" />
        </mxCell>
        <mxCell id="8YmQNiKLnC_YRresIaqK-7" style="edgeStyle=orthogonalEdgeStyle;rounded=0;orthogonalLoop=1;jettySize=auto;html=1;exitX=1;exitY=0.5;exitDx=0;exitDy=0;entryX=0.5;entryY=1;entryDx=0;entryDy=0;" edge="1" parent="0ZLc6GETvlCLtsxPZf_n-1" source="8YmQNiKLnC_YRresIaqK-5" target="0ZLc6GETvlCLtsxPZf_n-8">
          <mxGeometry relative="1" as="geometry" />
        </mxCell>
        <mxCell id="8YmQNiKLnC_YRresIaqK-5" value="rj45" style="rounded=1;whiteSpace=wrap;html=1;" vertex="1" parent="0ZLc6GETvlCLtsxPZf_n-1">
          <mxGeometry x="170" y="300" width="60" height="30" as="geometry" />
        </mxCell>
        <mxCell id="8YmQNiKLnC_YRresIaqK-8" style="edgeStyle=orthogonalEdgeStyle;rounded=0;orthogonalLoop=1;jettySize=auto;html=1;exitX=0.5;exitY=0;exitDx=0;exitDy=0;entryX=0.232;entryY=1.003;entryDx=0;entryDy=0;entryPerimeter=0;" edge="1" parent="0ZLc6GETvlCLtsxPZf_n-1" source="0ZLc6GETvlCLtsxPZf_n-7" target="0ZLc6GETvlCLtsxPZf_n-3">
          <mxGeometry relative="1" as="geometry" />
        </mxCell>
        <mxCell id="8YmQNiKLnC_YRresIaqK-9" style="edgeStyle=orthogonalEdgeStyle;rounded=0;orthogonalLoop=1;jettySize=auto;html=1;exitX=0.5;exitY=0;exitDx=0;exitDy=0;entryX=0.292;entryY=0.991;entryDx=0;entryDy=0;entryPerimeter=0;" edge="1" parent="0ZLc6GETvlCLtsxPZf_n-1" source="0ZLc6GETvlCLtsxPZf_n-8" target="0ZLc6GETvlCLtsxPZf_n-3">
          <mxGeometry relative="1" as="geometry" />
        </mxCell>
        <mxCell id="8YmQNiKLnC_YRresIaqK-10" style="edgeStyle=orthogonalEdgeStyle;rounded=0;orthogonalLoop=1;jettySize=auto;html=1;exitX=0.5;exitY=0;exitDx=0;exitDy=0;entryX=0.353;entryY=0.957;entryDx=0;entryDy=0;entryPerimeter=0;" edge="1" parent="0ZLc6GETvlCLtsxPZf_n-1" source="0ZLc6GETvlCLtsxPZf_n-9" target="0ZLc6GETvlCLtsxPZf_n-3">
          <mxGeometry relative="1" as="geometry" />
        </mxCell>
        <mxCell id="8YmQNiKLnC_YRresIaqK-12" style="edgeStyle=orthogonalEdgeStyle;rounded=0;orthogonalLoop=1;jettySize=auto;html=1;entryX=0.5;entryY=1;entryDx=0;entryDy=0;" edge="1" parent="0ZLc6GETvlCLtsxPZf_n-1" source="8YmQNiKLnC_YRresIaqK-11" target="0ZLc6GETvlCLtsxPZf_n-9">
          <mxGeometry relative="1" as="geometry" />
        </mxCell>
        <mxCell id="8YmQNiKLnC_YRresIaqK-11" value="hdmi/ rj45" style="rounded=1;whiteSpace=wrap;html=1;" vertex="1" parent="0ZLc6GETvlCLtsxPZf_n-1">
          <mxGeometry x="270" y="300" width="60" height="30" as="geometry" />
        </mxCell>
        <UserObject label="https://www.reachtech.com/products/touchscreen-display-modules/qt-embedded-touchscreen/" link="https://www.reachtech.com/products/touchscreen-display-modules/qt-embedded-touchscreen/" id="8YmQNiKLnC_YRresIaqK-13">
          <mxCell style="text;whiteSpace=wrap;" vertex="1" parent="0ZLc6GETvlCLtsxPZf_n-1">
            <mxGeometry x="440" y="490" width="390" height="40" as="geometry" />
          </mxCell>
        </UserObject>
        <mxCell id="8YmQNiKLnC_YRresIaqK-14" value="Shift Duty-Cycle" style="rounded=1;whiteSpace=wrap;html=1;" vertex="1" parent="0ZLc6GETvlCLtsxPZf_n-1">
          <mxGeometry x="500" y="80" width="60" height="30" as="geometry" />
        </mxCell>
        <mxCell id="8YmQNiKLnC_YRresIaqK-15" value="Change Frequency" style="rounded=1;whiteSpace=wrap;html=1;" vertex="1" parent="0ZLc6GETvlCLtsxPZf_n-1">
          <mxGeometry x="570" y="80" width="60" height="30" as="geometry" />
        </mxCell>
        <mxCell id="8YmQNiKLnC_YRresIaqK-16" value="Change Pose" style="rounded=1;whiteSpace=wrap;html=1;" vertex="1" parent="0ZLc6GETvlCLtsxPZf_n-1">
          <mxGeometry x="640" y="80" width="60" height="30" as="geometry" />
        </mxCell>
        <mxCell id="8YmQNiKLnC_YRresIaqK-17" value="Change Flow" style="rounded=1;whiteSpace=wrap;html=1;" vertex="1" parent="0ZLc6GETvlCLtsxPZf_n-1">
          <mxGeometry x="710" y="80" width="60" height="30" as="geometry" />
        </mxCell>
        <mxCell id="8YmQNiKLnC_YRresIaqK-21" style="edgeStyle=orthogonalEdgeStyle;rounded=0;orthogonalLoop=1;jettySize=auto;html=1;exitX=0.5;exitY=1;exitDx=0;exitDy=0;" edge="1" parent="0ZLc6GETvlCLtsxPZf_n-1" source="8YmQNiKLnC_YRresIaqK-18" target="8YmQNiKLnC_YRresIaqK-20">
          <mxGeometry relative="1" as="geometry" />
        </mxCell>
        <mxCell id="8YmQNiKLnC_YRresIaqK-18" value="Adjust Waveform" style="rounded=1;whiteSpace=wrap;html=1;" vertex="1" parent="0ZLc6GETvlCLtsxPZf_n-1">
          <mxGeometry x="540" y="150" width="60" height="30" as="geometry" />
        </mxCell>
        <mxCell id="8YmQNiKLnC_YRresIaqK-19" style="edgeStyle=orthogonalEdgeStyle;rounded=0;orthogonalLoop=1;jettySize=auto;html=1;exitX=0.5;exitY=0;exitDx=0;exitDy=0;entryX=0.683;entryY=1;entryDx=0;entryDy=0;entryPerimeter=0;endArrow=none;endFill=0;startArrow=classic;startFill=1;" edge="1" parent="0ZLc6GETvlCLtsxPZf_n-1" source="8YmQNiKLnC_YRresIaqK-18" target="0ZLc6GETvlCLtsxPZf_n-3">
          <mxGeometry relative="1" as="geometry" />
        </mxCell>
        <mxCell id="8YmQNiKLnC_YRresIaqK-20" value="PWM (timer)" style="rounded=1;whiteSpace=wrap;html=1;" vertex="1" parent="0ZLc6GETvlCLtsxPZf_n-1">
          <mxGeometry x="540" y="290" width="60" height="30" as="geometry" />
        </mxCell>
        <mxCell id="8YmQNiKLnC_YRresIaqK-22" value="LED" style="rounded=1;whiteSpace=wrap;html=1;" vertex="1" parent="0ZLc6GETvlCLtsxPZf_n-1">
          <mxGeometry x="620" y="290" width="60" height="30" as="geometry" />
        </mxCell>
        <mxCell id="8YmQNiKLnC_YRresIaqK-23" value="millis&lt;div&gt;(watchdog)&lt;/div&gt;" style="rounded=1;whiteSpace=wrap;html=1;" vertex="1" parent="0ZLc6GETvlCLtsxPZf_n-1">
          <mxGeometry x="720" y="290" width="60" height="30" as="geometry" />
        </mxCell>
        <mxCell id="8YmQNiKLnC_YRresIaqK-24" value="Microcontroller" style="rounded=0;whiteSpace=wrap;html=1;" vertex="1" parent="0ZLc6GETvlCLtsxPZf_n-1">
          <mxGeometry x="10" y="410" width="820" height="50" as="geometry" />
        </mxCell>
        <mxCell id="8YmQNiKLnC_YRresIaqK-25" value="Drivers" style="text;html=1;align=center;verticalAlign=middle;whiteSpace=wrap;rounded=0;" vertex="1" parent="0ZLc6GETvlCLtsxPZf_n-1">
          <mxGeometry x="10" y="210" width="60" height="30" as="geometry" />
        </mxCell>
        <mxCell id="8YmQNiKLnC_YRresIaqK-28" style="edgeStyle=orthogonalEdgeStyle;rounded=0;orthogonalLoop=1;jettySize=auto;html=1;exitX=0.5;exitY=1;exitDx=0;exitDy=0;endArrow=none;endFill=0;" edge="1" parent="0ZLc6GETvlCLtsxPZf_n-1" source="8YmQNiKLnC_YRresIaqK-26" target="8YmQNiKLnC_YRresIaqK-23">
          <mxGeometry relative="1" as="geometry" />
        </mxCell>
        <mxCell id="8YmQNiKLnC_YRresIaqK-26" value="Timer" style="rounded=1;whiteSpace=wrap;html=1;" vertex="1" parent="0ZLc6GETvlCLtsxPZf_n-1">
          <mxGeometry x="720" y="143" width="60" height="30" as="geometry" />
        </mxCell>
        <mxCell id="8YmQNiKLnC_YRresIaqK-27" style="edgeStyle=orthogonalEdgeStyle;rounded=0;orthogonalLoop=1;jettySize=auto;html=1;exitX=0.5;exitY=0;exitDx=0;exitDy=0;entryX=0.903;entryY=0.978;entryDx=0;entryDy=0;entryPerimeter=0;endArrow=none;endFill=0;" edge="1" parent="0ZLc6GETvlCLtsxPZf_n-1" source="8YmQNiKLnC_YRresIaqK-26" target="0ZLc6GETvlCLtsxPZf_n-3">
          <mxGeometry relative="1" as="geometry" />
        </mxCell>
        <mxCell id="8YmQNiKLnC_YRresIaqK-29" value="MCU&lt;div&gt;init&lt;/div&gt;" style="rounded=1;whiteSpace=wrap;html=1;" vertex="1" parent="0ZLc6GETvlCLtsxPZf_n-1">
          <mxGeometry x="20" y="300" width="60" height="30" as="geometry" />
        </mxCell>
        <mxCell id="8YmQNiKLnC_YRresIaqK-30" value="&lt;div style=&quot;text-align: justify;&quot;&gt;&lt;span style=&quot;background-color: initial;&quot;&gt;MCU =&amp;gt; MicroController Initialization [BOOT] =&amp;gt; clockrate and IO ping&lt;/span&gt;&lt;/div&gt;&lt;div style=&quot;text-align: justify;&quot;&gt;UART =&amp;gt; code sending characters to the UART line to host computer&amp;nbsp;&lt;/div&gt;&lt;div style=&quot;text-align: justify;&quot;&gt;&amp;nbsp;rj45 =&amp;gt; sends duty cycle/ Frequency from the user input (user console)&lt;/div&gt;&lt;div style=&quot;text-align: justify;&quot;&gt;hdmi =&amp;gt; touchscreen toggle from the User Console -&amp;gt; Embedded Computer&lt;/div&gt;" style="text;html=1;align=left;verticalAlign=middle;whiteSpace=wrap;rounded=0;" vertex="1" parent="0ZLc6GETvlCLtsxPZf_n-1">
          <mxGeometry x="370" y="530" width="290" height="180" as="geometry" />
        </mxCell>
      </root>
    </mxGraphModel>
  </diagram>
  <diagram name="Motors" id="b2TNzdx7_OOK0sNjQQam" />
  <diagram name="UserConsole" id="tbtGi5Sp5yYy6Q7oV7-5">
    <mxGraphModel dx="955" dy="907" grid="1" gridSize="10" guides="1" tooltips="1" connect="1" arrows="1" fold="1" page="1" pageScale="1" pageWidth="850" pageHeight="1100" math="0" shadow="0">
      <root>
        <mxCell id="L0dcrBX1Qlk_KBXRuq79-0" />
        <mxCell id="L0dcrBX1Qlk_KBXRuq79-1" parent="L0dcrBX1Qlk_KBXRuq79-0" />
        <mxCell id="L0dcrBX1Qlk_KBXRuq79-2" value="" style="rounded=0;whiteSpace=wrap;html=1;dashed=1;dashPattern=12 12;" vertex="1" parent="L0dcrBX1Qlk_KBXRuq79-1">
          <mxGeometry x="70" y="60" width="760" height="150" as="geometry" />
        </mxCell>
        <mxCell id="L0dcrBX1Qlk_KBXRuq79-3" value="State Machine" style="rounded=0;whiteSpace=wrap;html=1;" vertex="1" parent="L0dcrBX1Qlk_KBXRuq79-1">
          <mxGeometry x="70" y="70" width="760" height="50" as="geometry" />
        </mxCell>
        <mxCell id="L0dcrBX1Qlk_KBXRuq79-4" value="Application" style="text;html=1;align=center;verticalAlign=middle;whiteSpace=wrap;rounded=0;" vertex="1" parent="L0dcrBX1Qlk_KBXRuq79-1">
          <mxGeometry x="70" y="30" width="60" height="30" as="geometry" />
        </mxCell>
        <mxCell id="L0dcrBX1Qlk_KBXRuq79-5" value="" style="rounded=0;whiteSpace=wrap;html=1;dashed=1;dashPattern=12 12;" vertex="1" parent="L0dcrBX1Qlk_KBXRuq79-1">
          <mxGeometry x="70" y="240" width="760" height="150" as="geometry" />
        </mxCell>
        <mxCell id="L0dcrBX1Qlk_KBXRuq79-6" value="Input/ Output" style="rounded=0;whiteSpace=wrap;html=1;" vertex="1" parent="L0dcrBX1Qlk_KBXRuq79-1">
          <mxGeometry x="70" y="340" width="760" height="50" as="geometry" />
        </mxCell>
        <mxCell id="L0dcrBX1Qlk_KBXRuq79-7" value="Duty Cycle" style="rounded=1;whiteSpace=wrap;html=1;" vertex="1" parent="L0dcrBX1Qlk_KBXRuq79-1">
          <mxGeometry x="170" y="170" width="60" height="30" as="geometry" />
        </mxCell>
        <mxCell id="L0dcrBX1Qlk_KBXRuq79-8" value="Frequency" style="rounded=1;whiteSpace=wrap;html=1;" vertex="1" parent="L0dcrBX1Qlk_KBXRuq79-1">
          <mxGeometry x="220" y="130" width="60" height="30" as="geometry" />
        </mxCell>
        <mxCell id="L0dcrBX1Qlk_KBXRuq79-9" value="AdSet Toggle" style="rounded=1;whiteSpace=wrap;html=1;" vertex="1" parent="L0dcrBX1Qlk_KBXRuq79-1">
          <mxGeometry x="270" y="170" width="60" height="30" as="geometry" />
        </mxCell>
        <mxCell id="L0dcrBX1Qlk_KBXRuq79-10" value="&lt;span style=&quot;color: rgb(0, 0, 0); font-family: Arial; font-size: 13px; font-style: normal; font-variant-ligatures: normal; font-variant-caps: normal; font-weight: normal; letter-spacing: normal; orphans: 2; text-align: left; text-indent: 0px; text-transform: none; widows: 2; word-spacing: 0px; -webkit-text-stroke-width: 0px; white-space: pre-wrap; text-decoration: none; text-decoration-skip-ink: none;&quot;&gt;- &lt;/span&gt;&lt;span style=&quot;color: rgb(0, 0, 0); font-family: Arial; font-size: 13px; font-style: normal; font-variant-ligatures: normal; font-variant-caps: normal; letter-spacing: normal; orphans: 2; text-align: left; text-indent: 0px; text-transform: none; widows: 2; word-spacing: 0px; -webkit-text-stroke-width: 0px; white-space: pre-wrap; text-decoration: none; font-weight: bold; text-decoration-skip-ink: none;&quot;&gt;Duty-cycle&lt;/span&gt;&lt;span style=&quot;color: rgb(0, 0, 0); font-family: Arial; font-size: 13px; font-style: normal; font-variant-ligatures: normal; font-variant-caps: normal; font-weight: normal; letter-spacing: normal; orphans: 2; text-align: left; text-indent: 0px; text-transform: none; widows: 2; word-spacing: 0px; -webkit-text-stroke-width: 0px; white-space: pre-wrap; text-decoration: none; text-decoration-skip-ink: none;&quot;&gt; (percentage time on 0-100%)&#xa;- &lt;/span&gt;&lt;span style=&quot;color: rgb(0, 0, 0); font-family: Arial; font-size: 13px; font-style: normal; font-variant-ligatures: normal; font-variant-caps: normal; letter-spacing: normal; orphans: 2; text-align: left; text-indent: 0px; text-transform: none; widows: 2; word-spacing: 0px; -webkit-text-stroke-width: 0px; white-space: pre-wrap; text-decoration: none; font-weight: bold; text-decoration-skip-ink: none;&quot;&gt;Frequency &lt;/span&gt;&lt;span style=&quot;color: rgb(0, 0, 0); font-family: Arial; font-size: 13px; font-style: normal; font-variant-ligatures: normal; font-variant-caps: normal; font-weight: normal; letter-spacing: normal; orphans: 2; text-align: left; text-indent: 0px; text-transform: none; widows: 2; word-spacing: 0px; -webkit-text-stroke-width: 0px; white-space: pre-wrap; text-decoration: none; text-decoration-skip-ink: none;&quot;&gt;(Voltage)&#xa;&#xa;Advanced Mode:&#xa;- &lt;/span&gt;&lt;span style=&quot;color: rgb(0, 0, 0); font-family: Arial; font-size: 13px; font-style: normal; font-variant-ligatures: normal; font-variant-caps: normal; letter-spacing: normal; orphans: 2; text-align: left; text-indent: 0px; text-transform: none; widows: 2; word-spacing: 0px; -webkit-text-stroke-width: 0px; white-space: pre-wrap; text-decoration: none; font-weight: bold; text-decoration-skip-ink: none;&quot;&gt;Waveform shape&lt;/span&gt;&lt;span style=&quot;color: rgb(0, 0, 0); font-family: Arial; font-size: 13px; font-style: normal; font-variant-ligatures: normal; font-variant-caps: normal; font-weight: normal; letter-spacing: normal; orphans: 2; text-align: left; text-indent: 0px; text-transform: none; widows: 2; word-spacing: 0px; -webkit-text-stroke-width: 0px; white-space: pre-wrap; text-decoration: none; text-decoration-skip-ink: none;&quot;&gt;&#xa;- &lt;/span&gt;&lt;span style=&quot;color: rgb(0, 0, 0); font-family: Arial; font-size: 13px; font-style: normal; font-variant-ligatures: normal; font-variant-caps: normal; letter-spacing: normal; orphans: 2; text-align: left; text-indent: 0px; text-transform: none; widows: 2; word-spacing: 0px; -webkit-text-stroke-width: 0px; white-space: pre-wrap; text-decoration: none; font-weight: bold; text-decoration-skip-ink: none;&quot;&gt;Amplitude&lt;/span&gt;&lt;span style=&quot;color: rgb(0, 0, 0); font-family: Arial; font-size: 13px; font-style: normal; font-variant-ligatures: normal; font-variant-caps: normal; font-weight: normal; letter-spacing: normal; orphans: 2; text-align: left; text-indent: 0px; text-transform: none; widows: 2; word-spacing: 0px; -webkit-text-stroke-width: 0px; white-space: pre-wrap; text-decoration: none; text-decoration-skip-ink: none;&quot;&gt;&#xa;- &lt;/span&gt;&lt;span style=&quot;color: rgb(0, 0, 0); font-family: Arial; font-size: 13px; font-style: normal; font-variant-ligatures: normal; font-variant-caps: normal; letter-spacing: normal; orphans: 2; text-align: left; text-indent: 0px; text-transform: none; widows: 2; word-spacing: 0px; -webkit-text-stroke-width: 0px; white-space: pre-wrap; text-decoration: none; font-weight: bold; text-decoration-skip-ink: none;&quot;&gt;Wave onset&lt;/span&gt;&lt;span style=&quot;color: rgb(0, 0, 0); font-family: Arial; font-size: 13px; font-style: normal; font-variant-ligatures: normal; font-variant-caps: normal; font-weight: normal; letter-spacing: normal; orphans: 2; text-align: left; text-indent: 0px; text-transform: none; widows: 2; word-spacing: 0px; -webkit-text-stroke-width: 0px; white-space: pre-wrap; text-decoration: none; text-decoration-skip-ink: none;&quot;&gt;&#xa;- &lt;/span&gt;&lt;span style=&quot;color: rgb(0, 0, 0); font-family: Arial; font-size: 13px; font-style: normal; font-variant-ligatures: normal; font-variant-caps: normal; letter-spacing: normal; orphans: 2; text-align: left; text-indent: 0px; text-transform: none; widows: 2; word-spacing: 0px; -webkit-text-stroke-width: 0px; white-space: pre-wrap; text-decoration: none; font-weight: bold; text-decoration-skip-ink: none;&quot;&gt;Steady state&lt;/span&gt;&lt;span style=&quot;color: rgb(0, 0, 0); font-family: Arial; font-size: 13px; font-style: normal; font-variant-ligatures: normal; font-variant-caps: normal; font-weight: normal; letter-spacing: normal; orphans: 2; text-align: left; text-indent: 0px; text-transform: none; widows: 2; word-spacing: 0px; -webkit-text-stroke-width: 0px; white-space: pre-wrap; text-decoration: none; text-decoration-skip-ink: none;&quot;&gt;&#xa;- &lt;/span&gt;&lt;span style=&quot;color: rgb(0, 0, 0); font-family: Arial; font-size: 13px; font-style: normal; font-variant-ligatures: normal; font-variant-caps: normal; letter-spacing: normal; orphans: 2; text-align: left; text-indent: 0px; text-transform: none; widows: 2; word-spacing: 0px; -webkit-text-stroke-width: 0px; white-space: pre-wrap; text-decoration: none; font-weight: bold; text-decoration-skip-ink: none;&quot;&gt;Ramp down&lt;/span&gt;&lt;span style=&quot;color: rgb(0, 0, 0); font-family: Arial; font-size: 13px; font-style: normal; font-variant-ligatures: normal; font-variant-caps: normal; font-weight: normal; letter-spacing: normal; orphans: 2; text-align: left; text-indent: 0px; text-transform: none; widows: 2; word-spacing: 0px; -webkit-text-stroke-width: 0px; white-space: pre-wrap; text-decoration: none; text-decoration-skip-ink: none;&quot;&gt;&#xa;- &lt;/span&gt;&lt;span style=&quot;color: rgb(0, 0, 0); font-family: Arial; font-size: 13px; font-style: normal; font-variant-ligatures: normal; font-variant-caps: normal; letter-spacing: normal; orphans: 2; text-align: left; text-indent: 0px; text-transform: none; widows: 2; word-spacing: 0px; -webkit-text-stroke-width: 0px; white-space: pre-wrap; text-decoration: none; font-weight: bold; text-decoration-skip-ink: none;&quot;&gt;Tissue Effect&lt;/span&gt;&lt;span style=&quot;color: rgb(0, 0, 0); font-family: Arial; font-size: 13px; font-style: normal; font-variant-ligatures: normal; font-variant-caps: normal; font-weight: normal; letter-spacing: normal; orphans: 2; text-align: left; text-indent: 0px; text-transform: none; widows: 2; word-spacing: 0px; -webkit-text-stroke-width: 0px; white-space: pre-wrap; text-decoration: none; text-decoration-skip-ink: none;&quot;&gt;&#xa;- &lt;/span&gt;&lt;span style=&quot;color: rgb(0, 0, 0); font-family: Arial; font-size: 13px; font-style: normal; font-variant-ligatures: normal; font-variant-caps: normal; letter-spacing: normal; orphans: 2; text-align: left; text-indent: 0px; text-transform: none; widows: 2; word-spacing: 0px; -webkit-text-stroke-width: 0px; white-space: pre-wrap; text-decoration: none; font-weight: bold; text-decoration-skip-ink: none;&quot;&gt;Signal Line&lt;/span&gt;" style="text;whiteSpace=wrap;html=1;" vertex="1" parent="L0dcrBX1Qlk_KBXRuq79-1">
          <mxGeometry x="40" y="440" width="260" height="200" as="geometry" />
        </mxCell>
      </root>
    </mxGraphModel>
  </diagram>
</mxfile>
